<?xml version="1.0" standalone="no"?>
<!DOCTYPE svg PUBLIC "-//W3C//DTD SVG 20010904//EN"
 "http://www.w3.org/TR/2001/REC-SVG-20010904/DTD/svg10.dtd">
<svg version="1.0" xmlns="http://www.w3.org/2000/svg"
 width="360.000000pt" height="360.000000pt" viewBox="0 0 360.000000 360.000000"
 preserveAspectRatio="xMidYMid meet">

<g transform="translate(0.000000,360.000000) scale(0.100000,-0.100000)"
fill="#000000" stroke="none">
<path d="M1082 2597 c-116 -117 -212 -216 -212 -220 0 -4 312 -7 693 -7 l692
0 220 220 220 220 -700 0 -700 0 -213 -213z m1303 -7 l-160 -160 -602 0 c-332
0 -603 3 -603 7 0 4 69 76 152 160 l153 153 610 0 610 0 -160 -160z"/>
<path d="M1595 1980 c-193 -41 -285 -142 -293 -321 -5 -105 12 -167 64 -228
61 -70 150 -106 360 -145 186 -34 214 -52 214 -135 0 -68 -54 -101 -168 -101
-117 0 -174 32 -188 106 -5 26 -11 33 -23 30 -9 -2 -74 -13 -145 -22 -85 -12
-130 -23 -134 -32 -2 -7 4 -41 14 -75 15 -50 29 -73 74 -117 79 -80 146 -101
346 -108 315 -10 462 55 515 228 44 147 10 290 -89 366 -71 54 -130 72 -409
125 -71 14 -116 46 -127 91 -18 72 42 118 156 118 91 0 129 -22 148 -83 l15
-49 45 6 c25 3 94 13 154 23 l108 16 -6 41 c-10 64 -53 142 -103 186 -73 64
-146 83 -333 86 -85 2 -173 -1 -195 -6z"/>
</g>
</svg>
